<?xml version="1.0" encoding="UTF-8"?>
<!DOCTYPE svg PUBLIC "-//W3C//DTD SVG 1.1//EN" "http://www.w3.org/Graphics/SVG/1.1/DTD/svg11.dtd">
<!-- Creator: CorelDRAW 2021 (64 Bit) -->
<svg xmlns="http://www.w3.org/2000/svg" xml:space="preserve" width="8mm" height="8mm" version="1.1" style="shape-rendering:geometricPrecision; text-rendering:geometricPrecision; image-rendering:optimizeQuality; fill-rule:evenodd; clip-rule:evenodd"
viewBox="0 0 800 800"
 xmlns:xlink="http://www.w3.org/1999/xlink"
 xmlns:xodm="http://www.corel.com/coreldraw/odm/2003">
 <defs>
  <style type="text/css">
   <![CDATA[
    .fil0 {fill:white}
    .fil1 {fill:white;fill-rule:nonzero}
   ]]>
  </style>
 </defs>
 <g id="Camada_x0020_1">
  <metadata id="CorelCorpID_0Corel-Layer"/>
  <g id="_2155052872352">
   <g>
    <path class="fil0" d="M393.61 53.87c-199.6,0 -361.46,161.82 -361.46,361.45 0,159.71 103.57,295.19 247.19,342.99 18.06,3.35 24.69,-7.84 24.69,-17.39 0,-8.62 -0.34,-37.09 -0.49,-67.29 -100.56,21.86 -121.78,-42.65 -121.78,-42.65 -16.44,-41.78 -40.13,-52.89 -40.13,-52.89 -32.8,-22.43 2.47,-21.97 2.47,-21.97 36.29,2.55 55.41,37.25 55.41,37.25 32.24,55.25 84.56,39.28 105.18,30.05 3.25,-23.36 12.61,-39.31 22.95,-48.34 -80.28,-9.13 -164.68,-40.13 -164.68,-178.62 0,-39.47 14.12,-71.71 37.24,-97.03 -3.76,-9.1 -16.13,-45.86 3.5,-95.65 0,0 30.35,-9.71 99.42,37.05 28.84,-8.01 59.76,-12.04 90.49,-12.18 30.7,0.14 61.65,4.16 90.54,12.17 68.99,-46.76 99.3,-37.05 99.3,-37.05 19.67,49.78 7.3,86.55 3.55,95.65 23.17,25.32 37.2,57.56 37.2,97.02 0,138.83 -84.56,169.39 -165.05,178.35 12.97,11.21 24.53,33.22 24.53,66.93 0,48.37 -0.42,87.29 -0.42,99.19 0,9.62 6.51,20.89 24.83,17.34 143.53,-47.84 246.97,-183.28 246.97,-342.93 0,-199.62 -161.84,-361.44 -361.45,-361.44l0 -0.01z"/>
    <path class="fil1" d="M169.05 572.83c-0.79,1.8 -3.62,2.33 -6.19,1.11 -2.63,-1.18 -4.1,-3.62 -3.25,-5.43 0.78,-1.85 3.61,-2.36 6.22,-1.12 2.64,1.18 4.13,3.65 3.22,5.45l0 -0.01zm14.64 16.33c-1.71,1.6 -5.08,0.86 -7.37,-1.67 -2.37,-2.52 -2.81,-5.89 -1.06,-7.51 1.78,-1.59 5.05,-0.84 7.42,1.68 2.36,2.55 2.83,5.89 1.02,7.51l-0.01 -0.01zm14.26 20.82c-2.21,1.54 -5.84,0.1 -8.08,-3.12 -2.21,-3.22 -2.21,-7.08 0.06,-8.62 2.24,-1.54 5.81,-0.14 8.08,3.04 2.21,3.26 2.21,7.12 -0.06,8.69l0 0.01zm19.52 20.11c-1.97,2.19 -6.2,1.6 -9.29,-1.37 -3.15,-2.92 -4.03,-7.07 -2.05,-9.25 2.01,-2.19 6.25,-1.58 9.36,1.38 3.15,2.91 4.11,7.06 1.99,9.24l-0.01 0zm26.94 11.68c-0.88,2.83 -4.94,4.12 -9.04,2.91 -4.09,-1.24 -6.77,-4.55 -5.93,-7.41 0.84,-2.86 4.93,-4.19 9.05,-2.9 4.09,1.23 6.77,4.52 5.92,7.4zm29.58 2.16c0.1,2.98 -3.37,5.45 -7.66,5.51 -4.33,0.1 -7.83,-2.32 -7.87,-5.25 0,-3.01 3.4,-5.45 7.72,-5.53 4.29,-0.08 7.82,2.31 7.82,5.27l-0.01 0zm27.52 -4.68c0.52,2.9 -2.47,5.89 -6.74,6.69 -4.19,0.77 -8.08,-1.03 -8.62,-3.91 -0.51,-2.98 2.53,-5.97 6.72,-6.74 4.27,-0.74 8.1,1.02 8.64,3.97l0 -0.01zm0 0z"/>
   </g>
  </g>
 </g>
</svg>
