<?xml version="1.0" encoding="UTF-8"?>
<!DOCTYPE svg PUBLIC "-//W3C//DTD SVG 1.1//EN" "http://www.w3.org/Graphics/SVG/1.1/DTD/svg11.dtd">
<!-- Creator: CorelDRAW 2021 (64 Bit) -->
<svg xmlns="http://www.w3.org/2000/svg" xml:space="preserve" width="6.0477mm" height="6.048mm" version="1.1" style="shape-rendering:geometricPrecision; text-rendering:geometricPrecision; image-rendering:optimizeQuality; fill-rule:evenodd; clip-rule:evenodd"
viewBox="0 0 174.48 174.48"
 xmlns:xlink="http://www.w3.org/1999/xlink"
 xmlns:xodm="http://www.corel.com/coreldraw/odm/2003">
 <defs>
  <style type="text/css">
   <![CDATA[
    .fil0 {fill:#FEFEFE;fill-rule:nonzero}
   ]]>
  </style>
 </defs>
 <g id="Camada_x0020_1">
  <metadata id="CorelCorpID_0Corel-Layer"/>
  <g id="_2550229126768">
   <path class="fil0" d="M133.43 31.15c-5.64,0 -10.23,4.58 -10.23,10.23 0,5.65 4.59,10.24 10.23,10.24 5.66,0 10.24,-4.59 10.24,-10.24 0,-5.65 -4.58,-10.23 -10.24,-10.23z"/>
   <path class="fil0" d="M87.95 114.77c-15.18,0 -27.52,-12.36 -27.52,-27.53 0,-15.18 12.34,-27.52 27.52,-27.52 15.18,0 27.53,12.34 27.53,27.52 0,15.18 -12.35,27.53 -27.53,27.53zm0 -70.5c-23.69,0 -42.96,19.27 -42.96,42.97 0,23.69 19.27,42.97 42.96,42.97 23.7,0 42.97,-19.27 42.97,-42.97 0,-23.69 -19.27,-42.97 -42.97,-42.97z"/>
   <path class="fil0" d="M52.4 16.42c-19.85,0 -35.99,16.14 -35.99,36l0 69.66c0,19.86 16.14,36 35.99,36l69.67 0c19.85,0 36,-16.14 36,-36l0 -69.66c0,-19.86 -16.15,-36 -36,-36l-69.67 0zm69.67 158.07l-69.67 0c-28.89,0 -52.4,-23.51 -52.4,-52.41l0 -69.66c0,-28.9 23.51,-52.41 52.4,-52.41l69.67 0c28.9,0 52.41,23.51 52.41,52.41l0 69.66c0,28.9 -23.5,52.41 -52.41,52.41z"/>
  </g>
 </g>
</svg>
