<?xml version="1.0" encoding="UTF-8"?>
<!DOCTYPE svg PUBLIC "-//W3C//DTD SVG 1.1//EN" "http://www.w3.org/Graphics/SVG/1.1/DTD/svg11.dtd">
<!-- Creator: CorelDRAW 2021 (64 Bit) -->
<svg xmlns="http://www.w3.org/2000/svg" xml:space="preserve" width="4.8147mm" height="4.8039mm" version="1.1" style="shape-rendering:geometricPrecision; text-rendering:geometricPrecision; image-rendering:optimizeQuality; fill-rule:evenodd; clip-rule:evenodd"
viewBox="0 0 60.37 60.24"
 xmlns:xlink="http://www.w3.org/1999/xlink"
 xmlns:xodm="http://www.corel.com/coreldraw/odm/2003">
 <defs>
  <style type="text/css">
   <![CDATA[
    .fil0 {fill:#FEFEFE;fill-rule:nonzero}
   ]]>
  </style>
 </defs>
 <g id="Camada_x0020_1">
  <metadata id="CorelCorpID_0Corel-Layer"/>
  <g id="_2550232756256">
   <path class="fil0" d="M7.26 0c4,0 7.25,3.25 7.25,7.25 0,4 -3.24,7.25 -7.25,7.25 -4.02,0 -7.26,-3.26 -7.26,-7.25 0,-4 3.24,-7.25 7.26,-7.25zm-6.27 20l12.53 0 0 40.24 -12.53 0 0 -40.24z"/>
   <path class="fil0" d="M21.37 20l12 0 0 5.5 0.16 0c1.68,-3.17 5.76,-6.5 11.85,-6.5 12.66,0 15,8.33 15,19.17l0 22.07 -12.5 0 0 -19.57c0,-4.67 -0.09,-10.67 -6.5,-10.67 -6.51,0 -7.5,5.09 -7.5,10.33l0 19.91 -12.5 0 0 -40.24z"/>
  </g>
 </g>
</svg>
