<?xml version="1.0" encoding="UTF-8"?>
<!DOCTYPE svg PUBLIC "-//W3C//DTD SVG 1.1//EN" "http://www.w3.org/Graphics/SVG/1.1/DTD/svg11.dtd">
<!-- Creator: CorelDRAW 2021 (64 Bit) -->
<svg xmlns="http://www.w3.org/2000/svg" xml:space="preserve" width="5.9841mm" height="5.9986mm" version="1.1" style="shape-rendering:geometricPrecision; text-rendering:geometricPrecision; image-rendering:optimizeQuality; fill-rule:evenodd; clip-rule:evenodd"
viewBox="0 0 85.15 85.35"
 xmlns:xlink="http://www.w3.org/1999/xlink"
 xmlns:xodm="http://www.corel.com/coreldraw/odm/2003">
 <defs>
  <style type="text/css">
   <![CDATA[
    .fil1 {fill:#FEFEFE}
    .fil0 {fill:#FEFEFE;fill-rule:nonzero}
   ]]>
  </style>
 </defs>
 <g id="Camada_x0020_1">
  <metadata id="CorelCorpID_0Corel-Layer"/>
  <g id="_2549932389360">
   <path class="fil0" d="M24.09 70.65l1.44 0.86c5.31,3.16 11.34,4.83 17.46,4.83 18.84,0 34.18,-15.34 34.18,-34.19 0,-18.85 -15.34,-34.19 -34.18,-34.19 -18.85,0 -34.19,15.34 -34.19,34.19 0,6.23 1.73,12.35 5,17.73l0.89 1.45 -3.42 12.75 12.83 -3.44zm-24.09 14.71l6.12 -22.83c-3.47,-6.25 -5.29,-13.25 -5.29,-20.36 0,-23.24 18.91,-42.16 42.16,-42.16 23.24,0 42.16,18.91 42.16,42.16 0,23.25 -18.91,42.16 -42.16,42.16 -6.98,0 -13.87,-1.77 -20.04,-5.11l-22.95 6.15z"/>
   <path class="fil1" d="M58.68 48.02c-1.74,-1.04 -4,-2.2 -6.04,-1.36 -1.56,0.64 -2.56,3.1 -3.58,4.35 -0.52,0.64 -1.14,0.74 -1.95,0.42 -5.89,-2.35 -10.4,-6.28 -13.65,-11.69 -0.55,-0.84 -0.45,-1.5 0.22,-2.28 0.98,-1.16 2.21,-2.47 2.47,-4.02 0.27,-1.56 -0.47,-3.38 -1.1,-4.77 -0.83,-1.77 -1.74,-4.3 -3.52,-5.3 -1.63,-0.92 -3.78,-0.4 -5.23,0.78 -2.51,2.04 -3.72,5.24 -3.68,8.42 0.01,0.9 0.12,1.8 0.33,2.67 0.51,2.09 1.48,4.05 2.57,5.91 0.82,1.4 1.71,2.76 2.68,4.07 3.15,4.27 7.07,7.99 11.61,10.77 2.26,1.39 4.7,2.61 7.23,3.44 2.84,0.94 5.36,1.91 8.42,1.33 3.2,-0.61 6.37,-2.59 7.64,-5.68 0.37,-0.92 0.56,-1.94 0.35,-2.9 -0.44,-2 -3.14,-3.18 -4.75,-4.15z"/>
  </g>
 </g>
</svg>
